<?xml version="1.0" standalone="no"?>
<!DOCTYPE svg PUBLIC "-//W3C//DTD SVG 20010904//EN"
 "http://www.w3.org/TR/2001/REC-SVG-20010904/DTD/svg10.dtd">
<svg version="1.0" xmlns="http://www.w3.org/2000/svg"
 width="1200.000000pt" height="1200.000000pt" viewBox="0 0 1200.000000 1200.000000"
 preserveAspectRatio="xMidYMid meet">
<metadata>
Created by potrace 1.14, written by Peter Selinger 2001-2017
</metadata>
<g transform="translate(0.000000,1200.000000) scale(0.100000,-0.100000)"
fill="#000000" stroke="none">
<path d="M0 6000 l0 -6000 6000 0 6000 0 0 6000 0 6000 -6000 0 -6000 0 0
-6000z m1757 4580 c507 -109 643 -147 1032 -292 324 -120 847 -373 1103 -534
166 -103 335 -226 438 -317 73 -64 269 -271 354 -373 28 -34 33 -54 14 -54 -6
0 -75 -32 -152 -70 -106 -53 -174 -95 -273 -172 -73 -56 -131 -103 -129 -105
1 -2 36 12 77 31 111 51 307 116 608 201 533 150 805 195 1179 195 229 0 342
-11 602 -56 316 -55 973 -245 1179 -340 41 -19 76 -33 77 -31 2 2 -56 49 -129
105 -99 77 -167 119 -273 172 -77 38 -146 70 -152 70 -33 0 1 46 188 249 256
278 547 479 1075 741 411 203 613 287 989 409 217 71 861 217 1004 228 112 8
108 19 93 -245 -34 -584 -137 -1371 -226 -1717 -89 -346 -270 -837 -412 -1118
-95 -189 -244 -415 -289 -440 -27 -15 -63 21 -103 106 -22 45 -72 127 -111
182 -73 100 -181 228 -187 221 -2 -1 10 -34 26 -72 107 -252 215 -826 230
-1214 10 -285 -17 -724 -50 -810 -8 -20 -42 -40 -162 -94 -84 -38 -217 -102
-297 -142 l-145 -73 155 -1 c327 -1 543 -60 728 -200 204 -153 354 -348 424
-549 90 -260 54 -607 -98 -942 -164 -359 -490 -778 -827 -1060 -308 -258 -534
-408 -872 -574 -471 -233 -889 -372 -1305 -434 -182 -27 -502 -69 -625 -82
-153 -15 -900 -23 -1036 -11 -163 15 -767 116 -934 157 -302 72 -661 209
-1009 384 -269 135 -381 204 -589 359 -404 302 -645 553 -894 927 -302 455
-407 924 -285 1275 70 202 222 398 427 552 187 140 397 197 725 198 l155 1
-60 31 c-33 17 -168 82 -299 144 -132 62 -242 118 -246 126 -4 7 -15 83 -26
168 -27 217 -27 765 -1 950 59 409 133 738 208 914 16 38 28 71 26 73 -7 6
-111 -118 -186 -222 -40 -55 -90 -137 -112 -182 -40 -85 -76 -121 -103 -106
-45 25 -194 251 -289 440 -154 305 -359 873 -432 1198 -83 374 -176 1107 -206
1637 -15 264 -19 253 93 245 42 -4 184 -29 315 -57z"/>
<path d="M4153 8089 c18 -591 216 -954 572 -1044 78 -20 240 -19 319 1 95 25
193 81 266 154 239 238 182 566 -120 684 -24 10 -107 30 -185 46 -435 88 -639
162 -790 286 l-68 57 6 -184z"/>
<path d="M7791 8214 c-144 -121 -352 -196 -786 -284 -167 -34 -227 -55 -294
-104 -165 -121 -205 -319 -104 -510 62 -116 218 -234 359 -270 79 -20 241 -21
319 -1 355 90 554 453 572 1043 3 100 4 182 2 181 -2 0 -33 -25 -68 -55z"/>
<path d="M3225 6918 c-17 -51 24 -366 71 -552 54 -213 202 -555 311 -719 151
-227 412 -454 665 -579 367 -182 698 -213 1128 -107 69 17 126 32 128 34 10
10 -323 515 -345 522 -23 8 -142 -160 -213 -299 -43 -83 -77 -138 -86 -138
-29 0 -94 190 -126 370 -26 148 -29 410 -5 515 l16 70 -87 88 c-122 124 -275
255 -379 325 -229 153 -666 367 -925 452 -66 22 -126 40 -133 40 -8 0 -17 -10
-20 -22z"/>
<path d="M8620 6896 c-268 -91 -683 -295 -913 -449 -104 -69 -257 -200 -379
-324 l-87 -88 16 -70 c20 -87 22 -345 4 -460 -30 -195 -100 -417 -132 -423
-11 -2 -33 31 -74 110 -65 127 -125 222 -184 288 -35 40 -41 43 -54 30 -40
-41 -343 -507 -335 -515 2 -2 59 -17 127 -34 292 -72 548 -80 778 -22 343 86
627 259 878 533 145 159 246 334 359 625 89 229 144 469 162 709 7 101 1 134
-24 133 -9 0 -73 -19 -142 -43z"/>
<path d="M2690 4499 c107 -273 219 -498 333 -670 80 -121 203 -280 216 -279 3
1 47 51 96 112 50 61 139 167 199 235 59 68 106 126 103 129 -3 3 -58 23 -122
45 -123 41 -306 124 -408 185 -49 29 -302 201 -418 283 -19 14 -19 13 1 -40z"/>
<path d="M9280 4511 c-19 -16 -114 -81 -210 -146 -198 -133 -392 -232 -575
-294 -66 -22 -121 -44 -122 -48 -1 -5 38 -53 87 -108 50 -55 138 -159 197
-232 60 -73 111 -132 115 -132 12 -1 138 162 220 284 86 130 207 366 287 564
65 159 65 164 1 112z"/>
<path d="M3750 3995 c0 -3 45 -142 99 -308 55 -166 137 -416 182 -555 45 -139
85 -254 88 -257 4 -2 72 53 152 123 80 70 284 245 455 389 385 326 453 389
436 401 -7 5 -78 12 -158 16 -165 7 -565 55 -764 92 -149 27 -451 91 -475 100
-8 4 -15 3 -15 -1z"/>
<path d="M8215 3989 c-81 -24 -492 -103 -674 -128 -257 -37 -379 -50 -553 -59
-76 -5 -141 -12 -145 -16 -12 -12 215 -213 657 -583 80 -66 199 -168 265 -226
65 -58 122 -104 126 -101 4 2 44 118 89 256 44 139 126 389 181 554 54 166 99
305 99 308 0 7 -7 7 -45 -5z"/>
<path d="M3574 3832 c-216 -250 -283 -335 -274 -352 10 -19 170 -167 250 -231
139 -111 456 -328 464 -317 6 7 -325 1018 -333 1018 -3 0 -52 -53 -107 -118z"/>
<path d="M8228 3658 c-150 -455 -235 -723 -233 -726 6 -6 187 110 302 195 150
109 226 171 337 277 82 79 88 87 74 103 -8 10 -69 83 -134 163 -131 158 -232
273 -243 278 -4 1 -50 -129 -103 -290z"/>
<path d="M5310 3786 c0 -13 361 -639 410 -712 27 -39 71 -117 100 -174 39 -78
171 -320 184 -337 3 -3 162 288 201 367 21 41 56 102 79 135 43 60 416 708
416 721 0 3 -40 3 -89 0 -49 -4 -321 -7 -606 -7 -285 0 -557 3 -606 7 -49 3
-89 3 -89 0z"/>
<path d="M5165 3672 c-71 -68 -274 -244 -575 -497 -91 -76 -216 -184 -279
-239 l-114 -100 60 -27 c171 -76 406 -145 763 -223 405 -88 620 -121 840 -128
83 -3 95 -1 98 14 2 10 -32 80 -74 155 -43 76 -104 189 -136 252 -31 62 -70
130 -85 150 -15 20 -114 186 -219 370 -105 184 -195 336 -200 338 -5 1 -40
-28 -79 -65z"/>
<path d="M6722 3673 c-22 -38 -106 -185 -187 -328 -81 -143 -163 -281 -182
-308 -19 -26 -61 -98 -92 -160 -31 -61 -92 -174 -135 -250 -42 -75 -76 -145
-74 -155 3 -15 15 -17 93 -14 135 4 364 30 510 58 527 102 885 198 1098 293
l59 27 -118 105 c-66 58 -175 152 -244 209 -237 199 -535 455 -606 522 -39 38
-74 68 -77 68 -3 0 -24 -30 -45 -67z"/>
</g>
</svg>
